# xmcd
#
# Track frame offsets: 
#        150
#        19575
#        36300
#        55202
#        68720
#        83587
#        102660
#        117617
#        133197
#        150942
#        165110
#        180655
#        193930
#        212657
#        229010
#        244842
#        262445
#        277817
#        291350
#        307110
#        323072
#
# Disc length: 4477 seconds
#
# Revision: 2
# Processed by: cddbd v1.5.1PL2 Copyright (c) Steve Scherf et al.
# Submitted via: ExactAudioCopy v0.95b4
#
DISCID=32117b15
DTITLE=Forr  da Brucelose - Brucelose Vol. 4
DYEAR=1900
DGENRE=
TTITLE0=Sei que vou te amar
TTITLE1=Paix o envolvente
TTITLE2=Te amo demais
TTITLE3=Te amo, te quero, te adoro
TTITLE4=Porque brigamos
TTITLE5=Uma noite de amor
TTITLE6=Paix o e desejo
TTITLE7=Cora  o de vaqueiro
TTITLE8=Ardendo de paix o
TTITLE9=Nada acabou
TTITLE10=S  com voc 
TTITLE11=No coice da boiada
TTITLE12=Foi no baile
TTITLE13=Vem amor
TTITLE14=Se uma l grima rolar II
TTITLE15=Mais que uma paix o
TTITLE16=Me liga
TTITLE17=Brucelando no clube do vaqueiro
TTITLE18=Aboio nordestino
TTITLE19=Pra sempre te amar
TTITLE20=Pelos 7 segredos (3x7=21)
EXTD=
EXTT0=
EXTT1=
EXTT2=
EXTT3=
EXTT4=
EXTT5=
EXTT6=
EXTT7=
EXTT8=
EXTT9=
EXTT10=
EXTT11=
EXTT12=
EXTT13=
EXTT14=
EXTT15=
EXTT16=
EXTT17=
EXTT18=
EXTT19=
EXTT20=
PLAYORDER=
